<svg width="97" height="97" viewBox="0 0 97 97" fill="none" xmlns="http://www.w3.org/2000/svg">
<path d="M72.1523 24.5642C72.2233 24.6844 72.28 24.8104 72.3224 24.9422L73.9156 23.6117C73.8502 23.4976 73.7785 23.386 73.7004 23.277L72.1523 24.5642Z" fill="#1C1B1F"/>
<path d="M77.0343 21.0073C76.9607 20.9022 76.8842 20.7984 76.8047 20.6959L75.2533 21.9859C75.3326 22.0909 75.4078 22.1976 75.479 22.3061L77.0343 21.0073Z" fill="#1C1B1F"/>
<path d="M79.0729 18.2484L78.9588 18.9049L78.3229 19.4336C78.4007 19.5344 78.4767 19.6368 78.5508 19.7409L79.2442 19.1618L79.7579 19.2474L81.2421 18.2199L80.2717 18.1343L80.3573 17.1353L79.0729 18.2484Z" fill="#1C1B1F"/>
<path d="M72.3224 24.9422C72.28 24.8104 72.2233 24.6844 72.1523 24.5642L70.9003 25.5693C70.9003 25.5693 70.6564 25.7279 70.6686 25.8376C70.6808 25.9474 70.7214 26.0165 70.8312 26.0369C71.0111 26.0702 71.0978 25.9509 71.1367 25.9257L72.3224 24.9422Z" fill="#1C1B1F"/>
<path d="M70.8785 23.6135C70.7928 23.594 70.7048 23.5802 70.6145 23.572L70.317 24.9109C70.2834 24.9881 70.2486 25.1471 70.378 25.1651C70.5075 25.1831 70.5517 25.07 70.5576 25.0112L70.8785 23.6135Z" fill="#1C1B1F"/>
<path d="M70.6145 23.572C70.7048 23.5802 70.7928 23.594 70.8785 23.6135L71.327 21.6606L71.3066 21.6561C71.2224 21.6378 71.1371 21.6221 71.0507 21.6092L70.6145 23.572Z" fill="#1C1B1F"/>
<path d="M71.7762 19.7045C71.6805 19.6837 71.5839 19.6652 71.4863 19.649L71.0507 21.6092C71.1371 21.6221 71.2224 21.6378 71.3066 21.6561L71.327 21.6606L71.7762 19.7045Z" fill="#1C1B1F"/>
<path d="M72.3538 15.7453L71.9218 17.6895C72.0238 17.7072 72.125 17.7269 72.2253 17.7484L72.67 15.812C72.5651 15.7881 72.4597 15.7658 72.3538 15.7453Z" fill="#1C1B1F"/>
<path d="M60.6757 71.3232L59.593 70.2405L61.1332 68.6899V68.1877L59.0851 70.2358L60.6468 71.7976L61.1332 71.3111V70.8656L60.6757 71.3232Z" fill="#1C1B1F"/>
<path d="M61.5236 78.8262H62.0462V78.2836H61.5236V78.8262Z" fill="#1C1B1F"/>
<path d="M61.5236 67.7973V68.2969L62.0462 67.7707V67.2747L61.5236 67.7973Z" fill="#1C1B1F"/>
<path d="M61.5236 70.4752V70.9207L62.0462 70.3981V69.9526L61.5236 70.4752Z" fill="#1C1B1F"/>
<path d="M30.0563 40.8579C28.6432 40.2481 27.1333 39.9432 25.5266 39.9432C25.3911 39.9432 25.2563 39.9454 25.1222 39.9497L23.1543 41.9177C23.9354 41.7227 24.7475 41.6252 25.5906 41.6252C26.4122 41.6252 27.2045 41.7179 27.9674 41.9031H31.9891C31.3884 41.5031 30.7442 41.1547 30.0563 40.8579Z" fill="#1C1B1F"/>
<path d="M17.3091 59.7755C17.5103 59.9767 17.7184 60.1699 17.9333 60.355H20.71C19.8962 59.9009 19.1647 59.3494 18.5156 58.7002C18.2664 58.4511 18.0317 58.1899 17.8113 57.9165C17.7073 58.3233 17.3553 58.933 16.7608 59.1874C16.9364 59.3895 17.1192 59.5855 17.3091 59.7755Z" fill="#1C1B1F"/>
<path fill-rule="evenodd" clip-rule="evenodd" d="M53.8382 43.3629V0.211426C65.3938 1.42355 75.1514 6.02961 83.111 14.0296C91.0705 22.0296 95.6968 31.8074 96.9897 43.3629H53.8382ZM44.2625 96.0902C31.9796 94.8781 21.6968 89.7064 13.414 80.5751C5.13116 71.4438 0.989746 60.6559 0.989746 48.2114C0.989746 35.6862 5.13116 24.8579 13.414 15.7266C21.6968 6.59527 31.9796 1.42355 44.2625 0.211426V96.0902ZM53.8382 96.0902V52.9387H96.9897C95.8584 64.4943 91.2726 74.2922 83.2322 82.3326C75.1918 90.373 65.3938 94.9589 53.8382 96.0902ZM61.1332 81.4928C60.3999 81.4928 59.7721 81.2317 59.2499 80.7095C58.7277 80.1873 58.4666 79.5595 58.4666 78.8262V60.1595C58.4666 59.4262 58.7277 58.7984 59.2499 58.2762C59.7721 57.7539 60.3999 57.4928 61.1332 57.4928H79.7999C80.5332 57.4928 81.161 57.7539 81.6832 58.2762C82.2054 58.7984 82.4665 59.4262 82.4665 60.1595V78.8262C82.4665 79.5595 82.2054 80.1873 81.6832 80.7095C81.161 81.2317 80.5332 81.4928 79.7999 81.4928H61.1332ZM61.1332 70.8656V71.3111V77.741V78.2836V78.8262H61.5236V78.2836V77.741V70.9207V70.4752L61.1332 70.8656ZM62.0462 78.8262V78.2836H62.5689H79.7999V78.8262H62.5689H62.0462ZM62.5689 77.741H62.0462V70.3981V69.9526L65.3156 66.6833L68.4088 69.7765L73.5127 64.6726V66.6833H75.0593V62.0434H70.4194V63.59H72.4301L68.4088 67.5726L65.3156 64.4793L62.5689 67.2446L62.0462 67.7707V67.2747V60.1595H62.5689H79.7999V77.741H62.5689ZM61.5236 60.1595H61.1332V68.1877V68.6899L61.5236 68.2969V67.7973V60.1595ZM66.6384 72.6811V77.2079H68.9019V72.6811H66.6384ZM71.1653 77.2079V68.9087H73.4287V77.2079H71.1653ZM75.6921 65.1364V77.2079H77.9555V65.1364H75.6921ZM66.1661 29.8132C67.3327 30.9799 68.7494 31.5632 70.4161 31.5632C72.0827 31.5632 73.4994 30.9799 74.6661 29.8132C75.8327 28.6465 76.4161 27.2299 76.4161 25.5632C76.4161 24.4681 76.1642 23.4809 75.6605 22.6017L77.2367 21.3113C78.023 22.5553 78.4161 23.9726 78.4161 25.5632C78.4161 27.7965 77.6411 29.6882 76.0911 31.2382C74.5411 32.7882 72.6494 33.5632 70.4161 33.5632C68.1827 33.5632 66.2911 32.7882 64.7411 31.2382C63.1911 29.6882 62.4161 27.7965 62.4161 25.5632C62.4161 23.3299 63.1911 21.4382 64.7411 19.8882C66.2911 18.3382 68.1827 17.5632 70.4161 17.5632C70.8314 17.5632 71.235 17.59 71.6267 17.6436L71.1854 19.6067C70.9352 19.5777 70.6787 19.5632 70.4161 19.5632C68.7494 19.5632 67.3327 20.1465 66.1661 21.3132C64.9994 22.4799 64.4161 23.8965 64.4161 25.5632C64.4161 27.2299 64.9994 28.6465 66.1661 29.8132ZM71.4863 19.649C71.5839 19.6652 71.6805 19.6837 71.7762 19.7045L72.2253 17.7484C72.125 17.7269 72.0238 17.7072 71.9218 17.6895L71.4863 19.649ZM74.6661 21.3132C73.9071 20.5542 73.0422 20.0421 72.0716 19.7768C72.2244 19.1298 72.3808 18.4656 72.5323 17.8207C73.8707 18.1649 75.0569 18.854 76.0911 19.8882C76.2548 20.052 76.41 20.2196 76.5564 20.391L75.0217 21.6977C74.9099 21.5666 74.7913 21.4385 74.6661 21.3132ZM77.0343 21.0073L78.5508 19.7409L79.2442 19.1618L79.7579 19.2474L81.2421 18.2199L80.2717 18.1343L80.3573 17.1353L79.0729 18.2484L78.9588 18.9049L78.3229 19.4336L76.8047 20.6959L75.2533 21.9859L73.7004 23.277L72.1523 24.5642C72.2233 24.6844 72.28 24.8104 72.3224 24.9422L73.9156 23.6117L75.479 22.3061L77.0343 21.0073ZM72.3969 25.2733L74.0672 23.906C74.2998 24.4114 74.4161 24.9638 74.4161 25.5632C74.4161 26.6632 74.0244 27.6049 73.2411 28.3882C72.4577 29.1715 71.5161 29.5632 70.4161 29.5632C69.3161 29.5632 68.3744 29.1715 67.5911 28.3882C66.8077 27.6049 66.4161 26.6632 66.4161 25.5632C66.4161 24.4632 66.8077 23.5215 67.5911 22.7382C68.3744 21.9549 69.3161 21.5632 70.4161 21.5632C70.5266 21.5632 70.6356 21.5671 70.743 21.5751L70.2954 23.5664C69.7969 23.5932 69.3663 23.788 69.0036 24.1507C68.6119 24.5424 68.4161 25.0132 68.4161 25.5632C68.4161 26.1132 68.6119 26.584 69.0036 26.9757C69.3952 27.3674 69.8661 27.5632 70.4161 27.5632C70.9661 27.5632 71.4369 27.3674 71.8286 26.9757C72.2202 26.584 72.4161 26.1132 72.4161 25.5632C72.4161 25.464 72.4097 25.3674 72.3969 25.2733ZM71.6075 21.7347C71.418 22.5305 71.2532 23.2163 71.1363 23.6919C71.3895 23.7894 71.6202 23.9423 71.8286 24.1507C71.8771 24.1992 71.9227 24.249 71.9652 24.3L73.487 23.0043C73.4098 22.9137 73.3278 22.825 73.2411 22.7382C72.757 22.2541 72.2125 21.9196 71.6075 21.7347ZM78.7677 20.0581L79.3503 19.5811L79.8997 19.5751L81.9085 18.0768L80.5501 17.8981L80.6632 16.4415L78.8369 18.0083C78.8181 18.1713 78.7776 18.4999 78.7658 18.5099L78.0615 19.1096C77.8806 18.8947 77.6904 18.6875 77.4911 18.4882C76.5911 17.5882 75.5327 16.8757 74.3161 16.3507C73.883 16.1638 73.4393 16.0102 72.9852 15.8898L73.2139 14.9117L73.9066 14.2865L74.7682 11.8368L73.2308 12.9856L72.7577 11.0427L72.1495 13.5601L72.3015 14.6413L72.065 15.6938C71.5292 15.6067 70.9795 15.5632 70.4161 15.5632C69.0327 15.5632 67.7327 15.8257 66.5161 16.3507C65.2994 16.8757 64.2411 17.5882 63.3411 18.4882C62.4411 19.3882 61.7286 20.4465 61.2036 21.6632C60.6786 22.8799 60.4161 24.1799 60.4161 25.5632C60.4161 26.9465 60.6786 28.2465 61.2036 29.4632C61.7286 30.6799 62.4411 31.7382 63.3411 32.6382C64.2411 33.5382 65.2994 34.2507 66.5161 34.7757C67.7327 35.3007 69.0327 35.5632 70.4161 35.5632C71.7994 35.5632 73.0994 35.3007 74.3161 34.7757C75.5327 34.2507 76.5911 33.5382 77.4911 32.6382C78.3911 31.7382 79.1036 30.6799 79.6286 29.4632C80.1536 28.2465 80.4161 26.9465 80.4161 25.5632C80.4161 24.1799 80.1536 22.8799 79.6286 21.6632C79.3827 21.0934 79.0957 20.5584 78.7677 20.0581ZM72.3538 15.7453C72.4597 15.7658 72.5651 15.7881 72.67 15.812L72.9083 14.7741L73.6097 14.1296L74.1405 12.6509L73.0789 13.5798L72.7187 12.2148L72.3964 13.7504L72.5906 14.6798L72.3538 15.7453ZM10.0962 53.805C9.97957 52.0383 10.5129 50.5217 11.6962 49.255C12.5289 48.3637 13.5059 47.786 14.6273 47.5219C15.0997 47.4106 15.5977 47.355 16.1212 47.355C16.2624 47.355 16.4019 47.3593 16.5399 47.3678C16.7463 47.3805 16.9491 47.4029 17.1482 47.4347C17.6215 47.5105 18.0742 47.6401 18.5065 47.8238C19.0478 48.0537 19.5568 48.3683 20.0337 48.7675C21.1587 49.7092 21.8379 50.9133 22.0712 52.38C20.5546 52.3633 19.1587 51.955 17.8837 51.155C17.7919 51.0974 17.7017 51.0383 17.6129 50.9778C17.1552 50.6655 16.7383 50.3141 16.3622 49.9237C16.1814 49.736 16.0101 49.5393 15.8481 49.3336C15.5052 48.8979 15.2046 48.4217 14.9462 47.905C14.7606 48.8333 14.4315 49.691 13.959 50.4779C13.7529 50.8213 13.5195 51.1511 13.2587 51.4675C12.4004 52.5092 11.3462 53.2883 10.0962 53.805ZM11.1087 48.2925C12.2515 47.1498 13.6036 46.4877 15.165 46.3063C15.4597 46.2721 15.7617 46.255 16.0712 46.255C16.4272 46.255 16.7732 46.2776 17.1095 46.3229C17.3186 46.351 17.5239 46.3879 17.7253 46.4336C18.2019 46.5415 18.6571 46.6985 19.091 46.9044C19.7947 47.2383 20.4423 47.701 21.0337 48.2925C22.3921 49.6508 23.0712 51.305 23.0712 53.255V59.2522V60.355H22.4135H20.71C19.8962 59.9009 19.1647 59.3494 18.5156 58.7002C18.2664 58.4511 18.0317 58.1899 17.8113 57.9165C17.7803 57.8781 17.7497 57.8395 17.7193 57.8006H15.7287H14.5997C14.7502 58.3022 15.1565 59.3055 16.1798 59.3055C16.3939 59.3055 16.5877 59.2615 16.7608 59.1874C16.9364 59.3895 17.1192 59.5855 17.3091 59.7755C17.5103 59.9767 17.7184 60.1699 17.9333 60.355H15.0712V62.355H21.2284C21.3603 62.4084 21.493 62.4592 21.6265 62.5074C22.8561 62.951 24.1561 63.1728 25.5266 63.1728C27.1333 63.1728 28.6432 62.8679 30.0563 62.2581C30.1547 62.2157 30.2521 62.1722 30.3487 62.1277C30.3838 62.1115 30.4187 62.0952 30.4535 62.0787C30.9054 63.0637 31.537 63.9619 32.3483 64.7732C33.1816 65.6065 34.1066 66.2502 35.1233 66.7044C36.14 67.1586 37.1691 67.3857 38.2108 67.3857C38.3608 67.3857 38.4858 67.3357 38.5858 67.2357C38.6858 67.1357 38.7358 67.0107 38.7358 66.8607V64.8357C38.7358 64.7273 38.6983 64.6294 38.6233 64.5419C38.5483 64.4544 38.4525 64.394 38.3358 64.3607L36.6108 64.0107C36.4941 63.994 36.3754 64.0044 36.2546 64.0419C36.1337 64.0794 36.0358 64.1356 35.9608 64.2106L34.7858 65.3857C34.4691 65.2023 34.1691 65.0002 33.8858 64.7794C33.6025 64.5586 33.3316 64.319 33.0733 64.0607C32.7983 63.794 32.5462 63.5169 32.3171 63.2294C32.0879 62.9419 31.89 62.644 31.7233 62.3356L32.9358 61.1107C33.0025 61.044 33.0483 60.9648 33.0733 60.8732C33.0983 60.7815 33.1025 60.669 33.0858 60.5357L33.0615 60.4049C33.2971 60.2047 33.5246 59.9949 33.744 59.7755C34.1759 59.3436 34.5706 58.8803 34.9282 58.3857H39.7358V57.3857H35.5757C35.6018 57.3404 35.6277 57.295 35.6533 57.2494C35.8621 56.8771 36.0532 56.4899 36.2267 56.0878C36.8365 54.6747 37.1414 53.1647 37.1414 51.558C37.1414 49.9513 36.8365 48.4414 36.2267 47.0283C35.9216 46.3212 35.562 45.6603 35.1479 45.0453C35.1158 44.9976 35.0834 44.9502 35.0506 44.9031H37.1689L41.1689 48.9031V34.9031C41.1689 34.3531 40.9731 33.8823 40.5814 33.4906C40.1897 33.0989 39.7189 32.9031 39.1689 32.9031H38.1689V39.9031C38.1689 40.4531 37.9731 40.9239 37.5814 41.3156C37.1897 41.7073 36.7189 41.9031 36.1689 41.9031H31.9891C31.3884 41.5031 30.7442 41.1547 30.0563 40.8579C28.6432 40.2481 27.1333 39.9432 25.5266 39.9432C25.3911 39.9432 25.2563 39.9454 25.1222 39.9497L25.1689 39.9031H34.1689C34.7189 39.9031 35.1897 39.7073 35.5814 39.3156C35.9731 38.9239 36.1689 38.4531 36.1689 37.9031V30.9031C36.1689 30.3531 35.9731 29.8823 35.5814 29.4906C35.1897 29.0989 34.7189 28.9031 34.1689 28.9031H23.1689C22.6189 28.9031 22.1481 29.0989 21.7564 29.4906C21.3647 29.8823 21.1689 30.3531 21.1689 30.9031V40.7853C21.1114 40.809 21.054 40.8332 20.9968 40.8579C19.5837 41.4677 18.3544 42.2952 17.3091 43.3406C17.036 43.6137 16.7778 43.8993 16.5344 44.1975C16.4903 44.2515 16.4467 44.306 16.4036 44.3608C16.2934 44.3569 16.1826 44.355 16.0712 44.355C14.9379 44.355 13.8587 44.555 12.8337 44.955C11.8087 45.355 10.9004 45.9133 10.1087 46.63C9.31708 47.3467 8.65874 48.1883 8.13374 49.155C7.60874 50.1217 7.27958 51.1717 7.14624 52.305L7.07124 53.63C6.75457 53.8133 6.50874 54.0592 6.33374 54.3675C6.15874 54.6758 6.07124 55.005 6.07124 55.355V57.355C6.07124 57.905 6.26707 58.3758 6.65874 58.7675C7.05041 59.1592 7.52124 59.355 8.07124 59.355H9.07124V53.255C9.07124 51.305 9.75041 49.6508 11.1087 48.2925ZM24.6487 61.5835C24.7074 61.5888 24.7663 61.5936 24.8253 61.5979C25.0775 61.6161 25.3326 61.6252 25.5906 61.6252C26.9739 61.6252 28.2739 61.3627 29.4906 60.8377C29.6031 60.7892 29.7142 60.739 29.824 60.6873C29.8644 60.6682 29.9046 60.649 29.9447 60.6295C29.8822 60.3742 29.8337 60.1181 29.7993 59.8612C29.757 59.5455 29.7358 59.2287 29.7358 58.9107C29.7358 58.7607 29.7858 58.6357 29.8858 58.5357C29.9858 58.4357 30.1108 58.3857 30.2608 58.3857H31.8739H32.2858C32.4025 58.3857 32.5066 58.4252 32.5983 58.5044C32.6491 58.5482 32.6883 58.5966 32.7161 58.6493C33.1021 58.2577 33.4531 57.8365 33.769 57.3857C33.8007 57.3405 33.8319 57.2951 33.8629 57.2494C34.2242 56.7151 34.5376 56.1404 34.8031 55.5252C35.3281 54.3086 35.5906 53.0086 35.5906 51.6252C35.5906 50.2419 35.3281 48.9419 34.8031 47.7252C34.3714 46.7249 33.813 45.8316 33.1278 45.0453C33.0862 44.9975 33.044 44.9501 33.0014 44.9031H32.0539H29.9943H27.1689C26.6189 44.9031 26.1481 44.7073 25.7564 44.3156C25.5498 44.109 25.3977 43.8803 25.3001 43.6297C25.2126 43.4051 25.1689 43.163 25.1689 42.9031V42.272V41.9031H27.9674C27.2045 41.7179 26.4122 41.6252 25.5906 41.6252C24.7475 41.6252 23.9354 41.7227 23.1543 41.9177L22.2551 42.8169L21.1689 43.9031V43.2992V42.6541C21.1111 42.6827 21.0538 42.7118 20.9968 42.7413C20.0671 43.2228 19.24 43.8257 18.5156 44.5502C18.4791 44.5866 18.4431 44.6233 18.4073 44.6602C18.6217 44.7185 18.8337 44.7851 19.0433 44.86C19.128 44.8903 19.2123 44.922 19.2962 44.955C19.6866 45.1086 20.061 45.2849 20.4194 45.4839C20.9945 45.8033 21.5284 46.1811 22.0212 46.6175C22.8212 47.3258 23.4796 48.1633 23.9962 49.13C24.5129 50.0967 24.8462 51.1467 24.9962 52.28L25.0712 53.58C25.3879 53.73 25.6337 53.955 25.8087 54.255C25.9837 54.555 26.0712 54.8717 26.0712 55.205V57.505C26.0712 57.8383 25.9837 58.155 25.8087 58.455C25.6337 58.755 25.3879 58.98 25.0712 59.13V59.6109V60.355C25.0712 60.5234 25.0529 60.6844 25.0161 60.838C24.9512 61.1098 24.8287 61.3583 24.6487 61.5835ZM18.0774 54.4765C18.1419 54.6511 18.2128 54.8229 18.2901 54.9919C18.3114 55.0178 18.3343 55.043 18.3587 55.0675C18.5504 55.2592 18.7879 55.355 19.0712 55.355C19.3546 55.355 19.5921 55.2592 19.7837 55.0675C19.9754 54.8758 20.0712 54.6383 20.0712 54.355C20.0712 54.0717 19.9754 53.8342 19.7837 53.6425C19.5921 53.4508 19.3546 53.355 19.0712 53.355C18.7879 53.355 18.5504 53.4508 18.3587 53.6425C18.1671 53.8342 18.0712 54.0717 18.0712 54.355C18.0712 54.3965 18.0733 54.437 18.0774 54.4765ZM13.0712 55.355C12.7879 55.355 12.5504 55.2592 12.3587 55.0675C12.1671 54.8758 12.0712 54.6383 12.0712 54.355C12.0712 54.0717 12.1671 53.8342 12.3587 53.6425C12.5504 53.4508 12.7879 53.355 13.0712 53.355C13.3546 53.355 13.5921 53.4508 13.7837 53.6425C13.9754 53.8342 14.0712 54.0717 14.0712 54.355C14.0712 54.6383 13.9754 54.8758 13.7837 55.0675C13.5921 55.2592 13.3546 55.355 13.0712 55.355ZM24.3439 37.9031L23.1689 39.0781V37.9031V30.9031H34.1689V37.9031H24.3439ZM29.8233 33.2028V32.0648H24.4178V33.2028H29.8233ZM34.7358 59.3857V60.3857H39.7358V59.3857H34.7358ZM34.7358 61.3857V62.3857H39.7358V61.3857H34.7358Z" fill="#1C1B1F"/>
<path d="M24.4837 61.7675C24.0921 62.1592 23.6212 62.355 23.0712 62.355H21.2284C21.3603 62.4084 21.493 62.4592 21.6265 62.5074H23.1043C23.8759 62.5074 24.4595 62.0446 24.6548 61.8133L24.8253 61.5979C24.7663 61.5936 24.7074 61.5888 24.6487 61.5835C24.5982 61.6467 24.5432 61.708 24.4837 61.7675Z" fill="#1C1B1F"/>
<path d="M30.4535 62.0787C30.4412 62.0519 30.4291 62.0251 30.417 61.9982C30.2144 61.5444 30.0569 61.0882 29.9447 60.6295C29.9046 60.649 29.8644 60.6682 29.824 60.6873C29.9349 61.1223 30.1951 62.0195 30.3487 62.1277C30.3838 62.1115 30.4187 62.0952 30.4535 62.0787Z" fill="#1C1B1F"/>
<path d="M34.7358 57.3857H35.5757C35.6018 57.3404 35.6277 57.295 35.6533 57.2494C35.0825 57.2514 33.9253 57.2543 33.8629 57.2494C33.8319 57.2951 33.8007 57.3405 33.769 57.3857H34.7358Z" fill="#1C1B1F"/>
<path d="M34.7358 58.3857V57.3857H33.769C33.4531 57.8365 33.1021 58.2577 32.7161 58.6493C32.7385 58.6919 32.7534 58.7373 32.7608 58.7857L33.0615 60.4049C33.2971 60.2047 33.5246 59.9949 33.744 59.7755C34.1759 59.3436 34.5706 58.8803 34.9282 58.3857H34.7358Z" fill="#1C1B1F"/>
<path d="M35.0506 44.9031H33.0014C33.044 44.9501 33.0862 44.9975 33.1278 45.0453H35.1479C35.1158 44.9976 35.0834 44.9502 35.0506 44.9031Z" fill="#1C1B1F"/>
<path d="M21.1689 40.7853C21.1114 40.809 21.054 40.8332 20.9968 40.8579V42.7413C21.0538 42.7118 21.1111 42.6827 21.1689 42.6541V40.7853Z" fill="#1C1B1F"/>
</svg>
