<svg width="49" height="45" viewBox="0 0 49 45" fill="none" xmlns="http://www.w3.org/2000/svg">
<path fill-rule="evenodd" clip-rule="evenodd" d="M25.8556 37.9762V39.0118V42.8605V44.7114H33.553V42.8605V39.0118V37.9762H30.6665V36.0519H34.5773H38.3638V36.8877V37.9762H38.037H35.4773V42.4236V44.7114H43.1747V37.9762H40.2882V34.1275H39.1927H35.4773V33.4919V33.0519V32.2032H35.7319H38.3638V30.1692V26.8466V25.468H30.6665V26.8466V27.4658V32.2032H33.553V34.1275H28.7421V37.9762H25.8556ZM36.4395 30.2789H36.3092H32.5908V27.4658V27.3923H36.4395V27.4658H37.1531L36.4395 29.8447V30.1692V30.2789ZM31.6286 42.787H27.78V39.9005H31.6286V42.787ZM41.2503 42.787H37.4016V39.9005H41.2503V42.787Z" fill="#1C1B1F"/>
<path d="M37.1531 27.4658H36.4395V29.8447L37.1531 27.4658Z" fill="#1C1B1F"/>
<path fill-rule="evenodd" clip-rule="evenodd" d="M41.3791 26.8466L42.3303 23.679L42.3489 23.6172H42.3303H29.0397H25.7171V19.7685V15.9198V3.58803H37.3463V11.8946H45.6529V30.1692H40.3813L39.3836 33.4919H45.6529C46.5667 33.4919 47.3489 33.1665 47.9996 32.5158C48.6502 31.8651 48.9756 31.0829 48.9756 30.1692V10.2333L39.0076 0.265381H25.7171C24.8033 0.265381 24.0211 0.590724 23.3704 1.24141C22.7198 1.89209 22.3944 2.6743 22.3944 3.58803V15.9198H20.219L16.3703 12.0712H4.82426C3.76588 12.0712 2.85983 12.448 2.10613 13.2017C1.35244 13.9554 0.975586 14.8614 0.975586 15.9198V39.0118C0.975586 40.0702 1.35244 40.9763 2.10613 41.73C2.85983 42.4837 3.76588 42.8605 4.82426 42.8605H25.4526V39.0118H8.86537L12.3292 27.4658H22.3944H25.7171H30.393V26.8466V25.1572H38.693V26.8466H41.3791ZM30.6665 27.4658H32.5908V27.3923H36.4395V27.4658H37.1531L36.4395 29.8447V30.1692V30.2789H36.3092L35.7319 32.2032H38.3638V30.1692V26.8466V25.468H30.6665V26.8466V27.4658ZM25.8556 39.0118V42.8605H33.553V39.0118H25.8556ZM35.4773 33.0519V33.4919V34.1275H39.1927L38.3638 36.8877V36.0519H34.5773L35.3453 33.4919L35.4773 33.0519ZM18.6314 19.7685H22.3944V23.6172H9.44267L4.82426 39.0118V15.9198H14.7827L18.6314 19.7685ZM42.3303 20.2013H29.0397V19.7685V16.8786H38.1501H42.3303V20.2013ZM35.4773 37.9762H38.037L37.3937 40.1183C37.1371 40.9522 36.664 41.6177 35.9745 42.1148C35.8127 42.2314 35.647 42.3344 35.4773 42.4236V37.9762ZM31.6286 42.787H27.78V39.9005H31.6286V42.787Z" fill="#1C1B1F"/>
<path d="M39.3836 33.4919L40.3813 30.1692H39.3836V33.4919Z" fill="#1C1B1F"/>
</svg>
