<svg width="34" height="43" viewBox="0 0 34 43" fill="none" xmlns="http://www.w3.org/2000/svg">
<path d="M4.33623 42.5621C3.18123 42.5621 2.19248 42.1509 1.36998 41.3284C0.54748 40.5059 0.13623 39.5171 0.13623 38.3621V4.76213C0.13623 3.60713 0.54748 2.61838 1.36998 1.79588C2.19248 0.973384 3.18123 0.562134 4.33623 0.562134H21.1362L33.7362 13.1621V38.3621C33.7362 39.5171 33.325 40.5059 32.5025 41.3284C31.68 42.1509 30.6912 42.5621 29.5362 42.5621H4.33623ZM19.0362 15.2621V4.76213H4.33623V38.3621H6.53945H27.333H29.5362V15.2621H19.0362Z" fill="#1C1B1F"/>
<path fill-rule="evenodd" clip-rule="evenodd" d="M11.5779 15.4711L8.59972 13.8543V11.3016L6.89791 10.3656L11.5779 7.81293L16.2578 10.3656V13.7693H15.4069V10.8336L14.556 11.3016V13.8543L11.5779 15.4711ZM14.4922 10.3656L11.5779 11.9398L8.66354 10.3656L11.5779 8.79147L14.4922 10.3656ZM13.7051 13.3544L11.5779 14.5032L9.45062 13.3544V11.7484L11.5779 12.9183L13.7051 11.7484V13.3544Z" fill="#1C1B1F"/>
<path fill-rule="evenodd" clip-rule="evenodd" d="M27.333 38.3621V38.7931H6.53945V38.3621H27.333ZM7.91486 30.6273C7.57552 30.9594 7.40585 31.3709 7.40585 31.8619V35.3275H13.4706V33.3347C13.976 33.6957 14.5248 33.9737 15.1168 34.1687C15.7088 34.3636 16.3153 34.4611 16.9362 34.4611C17.5716 34.4611 18.1817 34.3672 18.7665 34.1795C19.3513 33.9918 19.8964 33.7174 20.4018 33.3564V35.3275H26.4666V31.8619C26.4666 31.3709 26.3006 30.9594 25.9684 30.6273C25.6363 30.2951 25.2248 30.1291 24.7338 30.1291H21.8964C21.622 30.1291 21.3585 30.2013 21.1058 30.3457C20.8531 30.4901 20.6329 30.685 20.4451 30.9305C20.0408 31.4937 19.5318 31.9341 18.9181 32.2517C18.3044 32.5694 17.6438 32.7283 16.9362 32.7283C16.2431 32.7283 15.5897 32.5694 14.976 32.2517C14.3623 31.9341 13.8461 31.4937 13.4273 30.9305C13.2685 30.685 13.0591 30.4901 12.7992 30.3457C12.5393 30.2013 12.2649 30.1291 11.9761 30.1291H9.13865C8.66213 30.1291 8.2542 30.2951 7.91486 30.6273ZM15.3767 31.4828C15.8677 31.7355 16.3875 31.8619 16.9362 31.8619C17.4994 31.8619 18.0264 31.7391 18.5174 31.4937C19.0084 31.2482 19.4127 30.8944 19.7304 30.4323C19.9758 30.0713 20.2863 29.7861 20.6617 29.5767C21.0372 29.3674 21.4343 29.2627 21.853 29.2627C21.5354 28.7284 20.8639 28.306 19.8387 27.9956C18.8134 27.6851 17.8459 27.5299 16.9362 27.5299C16.0265 27.5299 15.059 27.6851 14.0338 27.9956C13.0086 28.306 12.3371 28.7284 12.0194 29.2627C12.4526 29.2627 12.8533 29.3674 13.2215 29.5767C13.5898 29.7861 13.8966 30.0713 14.1421 30.4323C14.4742 30.88 14.8858 31.2301 15.3767 31.4828ZM8.16395 28.5046C8.66935 29.01 9.28305 29.2627 10.005 29.2627C10.7415 29.2627 11.3588 29.01 11.857 28.5046C12.3552 27.9992 12.6042 27.3855 12.6042 26.6635C12.6042 25.927 12.3552 25.3097 11.857 24.8116C11.3588 24.3134 10.7415 24.0643 10.005 24.0643C9.28305 24.0643 8.66935 24.3134 8.16395 24.8116C7.65855 25.3097 7.40585 25.927 7.40585 26.6635C7.40585 27.3855 7.65855 27.9992 8.16395 28.5046ZM22.0263 28.5046C22.5317 29.01 23.1454 29.2627 23.8674 29.2627C24.6039 29.2627 25.2212 29.01 25.7193 28.5046C26.2175 27.9992 26.4666 27.3855 26.4666 26.6635C26.4666 25.927 26.2175 25.3097 25.7193 24.8116C25.2212 24.3134 24.6039 24.0643 23.8674 24.0643C23.1454 24.0643 22.5317 24.3134 22.0263 24.8116C21.5209 25.3097 21.2682 25.927 21.2682 26.6635C21.2682 27.3855 21.5209 27.9992 22.0263 28.5046Z" fill="#1C1B1F"/>
<path d="M16.9362 26.6635C16.2142 26.6635 15.6005 26.4108 15.0951 25.9054C14.5897 25.4 14.337 24.7863 14.337 24.0643C14.337 23.3278 14.5897 22.7105 15.0951 22.2124C15.6005 21.7142 16.2142 21.4651 16.9362 21.4651C17.6727 21.4651 18.29 21.7142 18.7882 22.2124C19.2863 22.7105 19.5354 23.3278 19.5354 24.0643C19.5354 24.7863 19.2863 25.4 18.7882 25.9054C18.29 26.4108 17.6727 26.6635 16.9362 26.6635Z" fill="#1C1B1F"/>
</svg>
