<svg width="49" height="43" viewBox="0 0 49 43" fill="none" xmlns="http://www.w3.org/2000/svg">
<path fill-rule="evenodd" clip-rule="evenodd" d="M11.0279 38.1489V42.9903H38.693V38.1489C38.693 37.1979 38.4481 36.3046 37.9582 35.4688C37.4683 34.6331 36.7911 33.9991 35.9265 33.5668C34.4568 32.8176 32.7998 32.1836 30.9555 31.6649C29.1111 31.1462 27.0795 30.8868 24.8605 30.8868C22.6415 30.8868 20.6099 31.1462 18.7655 31.6649C16.9212 32.1836 15.2642 32.8176 13.7944 33.5668C12.9299 33.9991 12.2527 34.6331 11.7628 35.4688C11.2729 36.3046 11.0279 37.1979 11.0279 38.1489ZM35.2349 38.1489V39.5321H14.4861V38.1489C14.4861 37.8319 14.5653 37.5437 14.7238 37.2844C14.8823 37.025 15.0913 36.8233 15.3506 36.6792C16.3881 36.1605 17.7209 35.6417 19.3491 35.123C20.9773 34.6043 22.8144 34.3449 24.8605 34.3449C26.9066 34.3449 28.7437 34.6043 30.3719 35.123C32.0001 35.6417 33.3329 36.1605 34.3704 36.6792C34.6297 36.8233 34.8387 37.025 34.9972 37.2844C35.1557 37.5437 35.2349 37.8319 35.2349 38.1489ZM19.9759 27.1261C21.3303 28.4805 22.9585 29.1577 24.8605 29.1577C26.7625 29.1577 28.3907 28.4805 29.7451 27.1261C31.0995 25.7716 31.7768 24.1434 31.7768 22.2415H32.209C32.4684 22.2415 32.6773 22.1622 32.8358 22.0037C32.9943 21.8452 33.0736 21.6363 33.0736 21.3769C33.0736 21.1176 32.9943 20.9087 32.8358 20.7502C32.6773 20.5917 32.4684 20.5124 32.209 20.5124H31.7768C31.7768 19.2156 31.4598 18.0485 30.8258 17.011C30.1918 15.9736 29.3561 15.1523 28.3186 14.5471V16.1897C28.3186 16.4491 28.2394 16.658 28.0809 16.8165C27.9224 16.975 27.7134 17.0543 27.4541 17.0543C27.1947 17.0543 26.9858 16.975 26.8273 16.8165C26.6688 16.658 26.5896 16.4491 26.5896 16.1897V13.8555C26.3302 13.769 26.0564 13.7042 25.7683 13.661C25.4801 13.6178 25.1775 13.5961 24.8605 13.5961C24.5435 13.5961 24.2409 13.6178 23.9527 13.661C23.6646 13.7042 23.3908 13.769 23.1314 13.8555V16.1897C23.1314 16.4491 23.0522 16.658 22.8937 16.8165C22.7352 16.975 22.5262 17.0543 22.2669 17.0543C22.0075 17.0543 21.7986 16.975 21.6401 16.8165C21.4816 16.658 21.4024 16.4491 21.4024 16.1897V14.5471C20.3649 15.1523 19.5292 15.9736 18.8952 17.011C18.2612 18.0485 17.9442 19.2156 17.9442 20.5124H17.5119C17.2526 20.5124 17.0437 20.5917 16.8852 20.7502C16.7267 20.9087 16.6474 21.1176 16.6474 21.3769C16.6474 21.6363 16.7267 21.8452 16.8852 22.0037C17.0437 22.1622 17.2526 22.2415 17.5119 22.2415H17.9442C17.9442 24.1434 18.6214 25.7716 19.9759 27.1261ZM21.4024 22.2415H28.3186H30.2246C30.2246 22.2415 30.447 27.5857 24.8804 27.5857C19.2078 27.5857 19.5361 22.2415 19.5361 22.2415H21.4024ZM37.5691 31.3191L37.8285 32.6159H39.5576L39.8169 31.3191C39.9898 31.2614 40.1555 31.1966 40.314 31.1245C40.4725 31.0525 40.6238 30.9444 40.7679 30.8004L41.9783 31.2326L42.8428 29.6765L41.8918 28.8119V27.7745L42.8428 26.91L41.9783 25.3538L40.7679 25.7861C40.6526 25.6708 40.5086 25.5699 40.3357 25.4835C40.1627 25.397 39.9898 25.325 39.8169 25.2673L39.5576 23.9705H37.8285L37.5691 25.2673C37.3962 25.325 37.2233 25.397 37.0504 25.4835C36.8775 25.5699 36.7334 25.6708 36.6182 25.7861L35.4078 25.3538L34.5433 26.91L35.4943 27.7745V28.8119L34.5433 29.6765L35.4078 31.2326L36.6182 30.8004C36.7622 30.9444 36.9135 31.0525 37.072 31.1245C37.2305 31.1966 37.3962 31.2614 37.5691 31.3191ZM39.6008 29.201C39.3414 29.4603 39.0388 29.59 38.693 29.59C38.3472 29.59 38.0446 29.4603 37.7853 29.201C37.5259 28.9416 37.3962 28.639 37.3962 28.2932C37.3962 27.9474 37.5259 27.6448 37.7853 27.3854C38.0446 27.1261 38.3472 26.9964 38.693 26.9964C39.0388 26.9964 39.3414 27.1261 39.6008 27.3854C39.8602 27.6448 39.9898 27.9474 39.9898 28.2932C39.9898 28.639 39.8602 28.9416 39.6008 29.201ZM41.4595 22.155L41.8054 23.9705H44.2261L44.5719 22.155C44.8312 22.0686 45.069 21.9605 45.2851 21.8308C45.5012 21.7011 45.6958 21.5498 45.8687 21.3769L47.6842 21.9821L48.8945 19.9072L47.4248 18.6104C47.4825 18.4663 47.5113 18.3511 47.5113 18.2646V17.573C47.5113 17.4865 47.4825 17.3713 47.4248 17.2272L48.8945 15.9304L47.6842 13.8555L45.8687 14.4607C45.6958 14.2878 45.5012 14.1365 45.2851 14.0068C45.069 13.8771 44.8312 13.769 44.5719 13.6826L44.2261 11.8671H41.8054L41.4595 13.6826C41.2002 13.769 40.9624 13.8771 40.7463 14.0068C40.5302 14.1365 40.3356 14.2878 40.1627 14.4607L38.3472 13.8555L37.1369 15.9304L38.6066 17.2272C38.5489 17.3713 38.5201 17.4865 38.5201 17.573V18.2646C38.5201 18.3511 38.5489 18.4663 38.6066 18.6104L37.1369 19.9072L38.3472 21.9821L40.1627 21.3769C40.3356 21.5498 40.5302 21.7011 40.7463 21.8308C40.9624 21.9605 41.2002 22.0686 41.4595 22.155ZM44.5503 19.4534C44.1324 19.8712 43.6209 20.0801 43.0157 20.0801C42.4105 20.0801 41.899 19.8712 41.4812 19.4534C41.0633 19.0355 40.8544 18.524 40.8544 17.9188C40.8544 17.3136 41.0633 16.8021 41.4812 16.3843C41.899 15.9664 42.4105 15.7575 43.0157 15.7575C43.6209 15.7575 44.1324 15.9664 44.5503 16.3843C44.9681 16.8021 45.177 17.3136 45.177 17.9188C45.177 18.524 44.9681 19.0355 44.5503 19.4534Z" fill="#1C1B1F"/>
<path fill-rule="evenodd" clip-rule="evenodd" d="M1.68342 25.4669L4.99675 28.7802L22.7467 11.0302C23.036 11.1617 23.3384 11.2538 23.6539 11.3064C23.9695 11.3589 24.285 11.3852 24.6006 11.3852C26.1521 11.3852 27.4603 10.8527 28.5253 9.78775C29.5903 8.72275 30.1228 7.41451 30.1228 5.86303C30.1228 5.46859 30.0899 5.09387 30.0242 4.73887C29.9585 4.38387 29.8335 4.02229 29.6495 3.65415L25.7445 7.55914L22.9045 4.71914L26.8095 0.814153C26.4413 0.656376 26.0798 0.538042 25.7248 0.459153C25.3698 0.380264 24.995 0.34082 24.6006 0.34082C23.0491 0.34082 21.7409 0.873319 20.6759 1.93832C19.6109 3.00331 19.0784 4.31155 19.0784 5.86303C19.0784 6.17859 19.1113 6.49414 19.177 6.8097C19.2427 7.12525 19.3282 7.42766 19.4334 7.71692L15.8834 11.2669L12.5701 14.5802L1.68342 25.4669ZM12.1728 14.183L9.88785 11.898L8.7834 13.0025L6.77174 10.9908V14.2252L5.6673 15.3297L0.894531 10.5569L1.99897 9.45247H5.23341L3.26119 7.48025L8.86229 1.87915C9.38822 1.35323 9.95359 0.97193 10.5584 0.735264C11.1632 0.498598 11.7812 0.380264 12.4123 0.380264C13.0434 0.380264 13.6614 0.498598 14.2662 0.735264C14.871 0.97193 15.4364 1.35323 15.9623 1.87915L12.3334 5.50803L14.3056 7.48025L13.2012 8.58469L15.4862 10.8697L12.1728 14.183Z" fill="#1C1B1F"/>
</svg>
