<svg width="49" height="43" viewBox="0 0 49 43" fill="none" xmlns="http://www.w3.org/2000/svg">
<path d="M20.6803 37.1782C20.0216 37.1782 19.4047 37.0553 18.8295 36.8094C18.2542 36.5635 17.7515 36.2254 17.3211 35.795C16.8908 35.3647 16.5527 34.862 16.3068 34.2867C16.2529 34.1606 16.2049 34.0324 16.1628 33.9022C16.0129 33.4389 15.938 32.9501 15.938 32.4359C15.938 31.7773 16.0609 31.1603 16.3068 30.5851C16.5527 30.0099 16.8908 29.5071 17.3211 29.0768C17.7515 28.6465 18.2542 28.3084 18.8295 28.0625C19.4047 27.8166 20.0216 27.6936 20.6803 27.6936C20.8647 27.6936 21.0425 27.7046 21.2138 27.7266C21.2994 27.7375 21.3855 27.7512 21.4722 27.7677C21.559 27.7842 21.6463 27.8034 21.7341 27.8254V28.9055C21.6463 28.8792 21.559 28.8561 21.4722 28.8364C21.3855 28.8166 21.2994 28.8002 21.2138 28.787C21.0425 28.7606 20.8647 28.7475 20.6803 28.7475C19.644 28.7475 18.7702 29.1031 18.0588 29.8145C17.3475 30.5258 16.9918 31.3996 16.9918 32.4359C16.9918 32.9524 17.0802 33.4284 17.2568 33.8642C17.4347 34.3028 17.702 34.7005 18.0588 35.0574C18.7702 35.7687 19.644 36.1244 20.6803 36.1244C21.7166 36.1244 22.5904 35.7687 23.3017 35.0574C24.0131 34.346 24.3687 33.4722 24.3687 32.4359C24.3687 32.3393 24.3643 32.2515 24.3556 32.1725C24.3468 32.0934 24.3336 32.0056 24.316 31.909H25.3962C25.4138 32.0056 25.4226 32.0934 25.4226 32.1725V32.4359C25.4226 33.0946 25.2996 33.7115 25.0537 34.2867C24.8078 34.862 24.4697 35.3647 24.0394 35.795C23.6091 36.2254 23.1063 36.5635 22.5311 36.8094C21.9559 37.0553 21.3389 37.1782 20.6803 37.1782ZM22.1557 34.649L20.1534 32.6467V31.6565V29.8013H21.2072V30.7448V32.2252L22.8933 33.9113L22.1557 34.649ZM24.3687 30.8552V29.2744H22.788V28.2205H24.3687V26.6398H25.4226V28.2205H27.0033V29.2744H25.4226V30.8552H24.3687Z" fill="#1C1B1F"/>
<path d="M20.0871 4.39457V12.7661L28.5174 12.8249L20.0871 4.39457Z" fill="#1C1B1F"/>
<path fill-rule="evenodd" clip-rule="evenodd" d="M21.2138 27.7266C21.2994 27.7375 21.3855 27.7512 21.4722 27.7677V28.8364C21.3855 28.8166 21.2994 28.8002 21.2138 28.787C21.0425 28.7606 20.8647 28.7475 20.6803 28.7475C19.644 28.7475 18.7702 29.1031 18.0588 29.8145C17.3475 30.5258 16.9918 31.3996 16.9918 32.4359C16.9918 32.9524 17.0802 33.4284 17.2568 33.8642V33.9022H16.1628C16.0129 33.4389 15.938 32.9501 15.938 32.4359C15.938 31.7773 16.0609 31.1603 16.3068 30.5851C16.5527 30.0099 16.8908 29.5071 17.3211 29.0768C17.7515 28.6465 18.2542 28.3084 18.8295 28.0625C19.4047 27.8166 20.0216 27.6936 20.6803 27.6936C20.8647 27.6936 21.0425 27.7046 21.2138 27.7266ZM20.1534 31.6565C20.4174 31.5558 20.655 31.3998 20.8662 31.1885C21.0031 31.0517 21.1167 30.9038 21.2072 30.7448V29.8013H20.1534V31.6565ZM2.04002 41.0947C2.86553 41.9202 3.8579 42.3329 5.01713 42.3329H30.3094C31.4686 42.3329 32.461 41.9202 33.2865 41.0947C34.112 40.2692 34.5247 39.2768 34.5247 38.1176V23.6825V20.0928V12.8253L21.8786 0.179199H5.01713C3.8579 0.179199 2.86553 0.591955 2.04002 1.41747C1.21451 2.24298 0.801758 3.23534 0.801758 4.39457V38.1176C0.801758 39.2768 1.21451 40.2692 2.04002 41.0947ZM30.3094 38.1176H5.01713V4.39457H20.0871L28.5174 12.8249L30.3094 14.6169V38.1176Z" fill="#1C1B1F"/>
<path d="M21.4722 23.3638C21.4722 22.7666 21.2702 22.266 20.8662 21.862C20.4623 21.4581 19.9617 21.2561 19.3645 21.2561H13.0415V19.1484H21.4722V14.933H17.2568V12.8253H13.0415V14.933H10.9338C10.3366 14.933 9.83601 15.135 9.43204 15.539C9.02806 15.9429 8.82608 16.4435 8.82608 17.0407V23.3638C8.82608 23.9609 9.02806 24.4615 9.43204 24.8655C9.83601 25.2695 10.3366 25.4714 10.9338 25.4714H17.2568V27.5791H8.82608V31.7945H13.0415V33.9022H15.4545C15.2701 33.1754 15.2034 31.6396 15.7476 30.3295C16.3479 28.8843 17.5073 27.9595 18.6932 27.5088C19.5858 27.1696 20.2285 27.0804 21.4722 27.2232V23.3638Z" fill="#1C1B1F"/>
<path d="M39.6414 23.6825V20.0928H34.5247V23.6825H39.6414Z" fill="#1C1B1F"/>
<path d="M43.8613 29.9848V25.9468H34.5247V29.9848H43.8613Z" fill="#1C1B1F"/>
<path d="M48.8018 37.3256V32.7272H34.5247V37.3256H48.8018Z" fill="#1C1B1F"/>
</svg>
