<svg width="49" height="49" viewBox="0 0 49 49" fill="none" xmlns="http://www.w3.org/2000/svg">
<path d="M36.1208 45.3402H38.145V43.8943C39.109 43.7208 39.9379 43.3448 40.632 42.7665C41.326 42.1881 41.673 41.3302 41.673 40.1928C41.673 39.3831 41.4417 38.6408 40.979 37.9661C40.5163 37.2913 39.5909 36.7033 38.2029 36.2021C37.0461 35.8165 36.2461 35.4791 35.8027 35.19C35.3592 34.9008 35.1375 34.5056 35.1375 34.0043C35.1375 33.5031 35.3159 33.1079 35.6725 32.8187C36.0292 32.5295 36.5449 32.3849 37.2196 32.3849C37.8366 32.3849 38.3185 32.5343 38.6655 32.8331C39.0126 33.132 39.2632 33.5031 39.4174 33.9465L41.2682 33.1946C41.0561 32.5199 40.6657 31.9319 40.097 31.4306C39.5283 30.9294 38.8969 30.6498 38.2029 30.592V29.1461H36.1786V30.592C35.2147 30.8041 34.4628 31.2282 33.923 31.8644C33.3832 32.5006 33.1133 33.2139 33.1133 34.0043C33.1133 34.9104 33.3784 35.643 33.9085 36.2021C34.4387 36.7612 35.2725 37.2431 36.4099 37.648C37.6245 38.0914 38.4679 38.4866 38.9403 38.8336C39.4126 39.1806 39.6488 39.6337 39.6488 40.1928C39.6488 40.829 39.4222 41.2965 38.9692 41.5953C38.5161 41.8941 37.9715 42.0435 37.3353 42.0435C36.6991 42.0435 36.1352 41.8459 35.6436 41.4507C35.152 41.0555 34.7905 40.4627 34.5592 39.6723L32.6506 40.4241C32.9205 41.3495 33.3398 42.0965 33.9085 42.6653C34.4773 43.234 35.2147 43.6244 36.1208 43.8364V45.3402ZM37.1618 48.8103C35.5617 48.8103 34.0579 48.5067 32.6506 47.8994C31.2433 47.2921 30.0191 46.468 28.978 45.4269C27.937 44.3859 27.1128 43.1617 26.5055 41.7543C25.8982 40.347 25.5946 38.8433 25.5946 37.2431C25.5946 35.643 25.8982 34.1393 26.5055 32.7319C27.1128 31.3246 27.937 30.1004 28.978 29.0593C30.0191 28.0183 31.2433 27.1941 32.6506 26.5869C34.0579 25.9796 35.5617 25.6759 37.1618 25.6759C38.7619 25.6759 40.2657 25.9796 41.673 26.5869C43.0804 27.1941 44.3046 28.0183 45.3456 29.0593C46.3866 30.1004 47.2108 31.3246 47.8181 32.7319C48.4254 34.1393 48.729 35.643 48.729 37.2431C48.729 38.8433 48.4254 40.347 47.8181 41.7543C47.2108 43.1617 46.3866 44.3859 45.3456 45.4269C44.3046 46.468 43.0804 47.2921 41.673 47.8994C40.2657 48.5067 38.7619 48.8103 37.1618 48.8103ZM37.1618 46.4969C39.7451 46.4969 41.9333 45.6004 43.7262 43.8075C45.5191 42.0146 46.4156 39.8265 46.4156 37.2431C46.4156 34.6598 45.5191 32.4717 43.7262 30.6788C41.9333 28.8858 39.7451 27.9894 37.1618 27.9894C34.5785 27.9894 32.3903 28.8858 30.5974 30.6788C28.8045 32.4717 27.908 34.6598 27.908 37.2431C27.908 39.8265 28.8045 42.0146 30.5974 43.8075C32.3903 45.6004 34.5785 46.4969 37.1618 46.4969Z" fill="#1C1B1F"/>
<path d="M7.87589 16.1422V16.9131C7.87589 17.1315 7.80201 17.3146 7.65426 17.4624C7.5065 17.6101 7.32342 17.684 7.105 17.684H6.33412C6.1157 17.684 5.93261 17.6101 5.78486 17.4624C5.63711 17.3146 5.56323 17.1315 5.56323 16.9131V10.746L7.18209 6.12072C7.25918 5.88946 7.3973 5.70316 7.59644 5.56183C7.79559 5.4205 8.01722 5.34984 8.26133 5.34984H16.7411C16.9852 5.34984 17.2068 5.4205 17.406 5.56183C17.6051 5.70316 17.7432 5.88946 17.8203 6.12072L19.4392 10.746V16.9131C19.4392 17.1315 19.3653 17.3146 19.2176 17.4624C19.0698 17.6101 18.8867 17.684 18.6683 17.684H17.8974C17.679 17.684 17.4959 17.6101 17.3482 17.4624C17.2004 17.3146 17.1265 17.1315 17.1265 16.9131V16.1422H7.87589ZM7.72171 9.20427H17.2807L16.4713 6.89161H8.53114L7.72171 9.20427ZM9.03222 13.8296C9.35342 13.8296 9.62644 13.7172 9.85128 13.4923C10.0761 13.2675 10.1885 12.9945 10.1885 12.6733C10.1885 12.3521 10.0761 12.079 9.85128 11.8542C9.62644 11.6293 9.35342 11.5169 9.03222 11.5169C8.71101 11.5169 8.43799 11.6293 8.21315 11.8542C7.98831 12.079 7.87589 12.3521 7.87589 12.6733C7.87589 12.9945 7.98831 13.2675 8.21315 13.4923C8.43799 13.7172 8.71101 13.8296 9.03222 13.8296ZM15.9702 13.8296C16.2914 13.8296 16.5644 13.7172 16.7893 13.4923C17.0141 13.2675 17.1265 12.9945 17.1265 12.6733C17.1265 12.3521 17.0141 12.079 16.7893 11.8542C16.5644 11.6293 16.2914 11.5169 15.9702 11.5169C15.649 11.5169 15.376 11.6293 15.1511 11.8542C14.9263 12.079 14.8139 12.3521 14.8139 12.6733C14.8139 12.9945 14.9263 13.2675 15.1511 13.4923C15.376 13.7172 15.649 13.8296 15.9702 13.8296ZM7.105 14.6005H17.8974V10.746H7.105V14.6005Z" fill="#1C1B1F"/>
<path d="M18.5644 33.663V32.8921L19.7207 32.1212C18.9627 32.1212 18.3235 31.861 17.8032 31.3407C17.2828 30.8203 17.0226 30.1811 17.0226 29.4231V22.0997C17.0226 21.0333 17.5173 20.2528 18.5066 19.7581C19.4959 19.2635 21.0569 19.0161 23.1897 19.0161C25.3996 19.0161 26.9799 19.2538 27.9307 19.7292C28.8814 20.2046 29.3568 20.9947 29.3568 22.0997V29.4231C29.3568 30.1811 29.0966 30.8203 28.5763 31.3407C28.0559 31.861 27.4168 32.1212 26.6587 32.1212L27.815 32.8921V33.663H18.5644ZM18.5644 25.1832H27.815V22.8706H18.5644V25.1832ZM23.1897 29.8085C23.5109 29.8085 23.7839 29.6961 24.0088 29.4713C24.2336 29.2464 24.3461 28.9734 24.3461 28.6522C24.3461 28.331 24.2336 28.058 24.0088 27.8331C23.7839 27.6083 23.5109 27.4959 23.1897 27.4959C22.8685 27.4959 22.5955 27.6083 22.3707 27.8331C22.1458 28.058 22.0334 28.331 22.0334 28.6522C22.0334 28.9734 22.1458 29.2464 22.3707 29.4713C22.5955 29.6961 22.8685 29.8085 23.1897 29.8085ZM19.7207 30.5794H26.6587C26.9928 30.5794 27.269 30.4702 27.4874 30.2518C27.7058 30.0334 27.815 29.7571 27.815 29.4231V26.725H18.5644V29.4231C18.5644 29.7571 18.6736 30.0334 18.892 30.2518C19.1105 30.4702 19.3867 30.5794 19.7207 30.5794ZM23.1897 20.5579C22.0848 20.5579 21.1694 20.6221 20.4434 20.7506C19.7175 20.8791 19.2068 21.0718 18.9113 21.3288H27.5452C27.314 21.0718 26.8354 20.8791 26.1095 20.7506C25.3835 20.6221 24.4103 20.5579 23.1897 20.5579Z" fill="#1C1B1F"/>
<path d="M3.04166 32.0195V32.7904C3.04166 33.0088 2.96779 33.1919 2.82003 33.3396C2.67228 33.4874 2.48919 33.5612 2.27078 33.5612H1.49989C1.28147 33.5612 1.09839 33.4874 0.950634 33.3396C0.802881 33.1919 0.729004 33.0088 0.729004 32.7904V26.6233L2.34787 21.9979C2.42495 21.7667 2.56307 21.5804 2.76222 21.4391C2.96136 21.2977 3.18299 21.2271 3.42711 21.2271H5.35432V19.6853H9.97964V21.2271H11.9069C12.151 21.2271 12.3726 21.2977 12.5717 21.4391C12.7709 21.5804 12.909 21.7667 12.9861 21.9979L14.605 26.6233V32.7904C14.605 33.0088 14.5311 33.1919 14.3833 33.3396C14.2356 33.4874 14.0525 33.5612 13.8341 33.5612H13.0632C12.8448 33.5612 12.6617 33.4874 12.5139 33.3396C12.3662 33.1919 12.2923 33.0088 12.2923 32.7904V32.0195H3.04166ZM2.88749 25.0815H12.4465L11.637 22.7688H3.69692L2.88749 25.0815ZM4.19799 29.7068C4.51919 29.7068 4.79222 29.5944 5.01706 29.3695C5.2419 29.1447 5.35432 28.8717 5.35432 28.5505C5.35432 28.2293 5.2419 27.9563 5.01706 27.7314C4.79222 27.5066 4.51919 27.3942 4.19799 27.3942C3.87679 27.3942 3.60377 27.5066 3.37893 27.7314C3.15408 27.9563 3.04166 28.2293 3.04166 28.5505C3.04166 28.8717 3.15408 29.1447 3.37893 29.3695C3.60377 29.5944 3.87679 29.7068 4.19799 29.7068ZM11.136 29.7068C11.4572 29.7068 11.7302 29.5944 11.955 29.3695C12.1799 29.1447 12.2923 28.8717 12.2923 28.5505C12.2923 28.2293 12.1799 27.9563 11.955 27.7314C11.7302 27.5066 11.4572 27.3942 11.136 27.3942C10.8148 27.3942 10.5417 27.5066 10.3169 27.7314C10.0921 27.9563 9.97964 28.2293 9.97964 28.5505C9.97964 28.8717 10.0921 29.1447 10.3169 29.3695C10.5417 29.5944 10.8148 29.7068 11.136 29.7068ZM2.27078 30.4777H13.0632V26.6233H2.27078V30.4777Z" fill="#1C1B1F"/>
<path d="M23.5033 17.0962V15.3007H39.6625V17.0962H23.5033ZM25.0743 12.6075L21.7078 6.99663L23.8624 6.4131L26.376 8.52278L29.5181 7.69237L24.8723 1.49799L27.4758 0.802246L34.1863 6.43554L38.0017 5.40314C38.4805 5.26848 38.9331 5.32459 39.3595 5.57147C39.786 5.81835 40.0665 6.18118 40.2012 6.65998C40.3358 7.13877 40.2797 7.59138 40.0328 8.0178C39.786 8.44423 39.4231 8.72477 38.9443 8.85943L25.0743 12.6075Z" fill="#1C1B1F"/>
<path d="M10.7607 44.9823C9.6943 44.9823 8.78529 44.6065 8.03368 43.8549C7.28206 43.1033 6.90626 42.1943 6.90626 41.1279C6.90626 40.0615 7.28206 39.1525 8.03368 38.4009C8.78529 37.6493 9.6943 37.2735 10.7607 37.2735H19.703L18.1612 35.7317H15.386V34.1899H18.1419C18.3475 34.1899 18.5434 34.2285 18.7297 34.3056C18.916 34.3827 19.0798 34.4919 19.2212 34.6332L21.9 37.312C22.9021 37.3891 23.7373 37.7938 24.4054 38.5262C25.0735 39.2585 25.4075 40.1258 25.4075 41.1279C25.4075 42.1943 25.0317 43.1033 24.2801 43.8549C23.5285 44.6065 22.6195 44.9823 21.5531 44.9823C20.4867 44.9823 19.5777 44.6065 18.8261 43.8549C18.0745 43.1033 17.6987 42.1943 17.6987 41.1279C17.6987 40.8967 17.7147 40.6686 17.7468 40.4438C17.779 40.2189 17.84 39.9973 17.9299 39.7789L15.81 41.8988H14.538C14.3582 42.7982 13.9149 43.5369 13.2083 44.1151C12.5016 44.6933 11.6858 44.9823 10.7607 44.9823ZM21.5531 43.4406C22.1955 43.4406 22.7415 43.2157 23.1912 42.7661C23.6409 42.3164 23.8658 41.7703 23.8658 41.1279C23.8658 40.4855 23.6409 39.9395 23.1912 39.4898C22.7415 39.0401 22.1955 38.8153 21.5531 38.8153C20.9107 38.8153 20.3646 39.0401 19.915 39.4898C19.4653 39.9395 19.2404 40.4855 19.2404 41.1279C19.2404 41.7703 19.4653 42.3164 19.915 42.7661C20.3646 43.2157 20.9107 43.4406 21.5531 43.4406ZM10.7607 43.4406C11.2489 43.4406 11.689 43.2992 12.0808 43.0166C12.4727 42.7339 12.7521 42.3613 12.9192 41.8988H10.7607V40.357H12.9192C12.7521 39.8945 12.4727 39.5219 12.0808 39.2392C11.689 38.9566 11.2489 38.8153 10.7607 38.8153C10.1183 38.8153 9.57224 39.0401 9.12256 39.4898C8.67287 39.9395 8.44803 40.4855 8.44803 41.1279C8.44803 41.7703 8.67287 42.3164 9.12256 42.7661C9.57224 43.2157 10.1183 43.4406 10.7607 43.4406ZM14.5766 40.357H15.1547L16.6965 38.8153H13.8057C13.9984 39.0337 14.159 39.2714 14.2875 39.5283C14.416 39.7853 14.5123 40.0615 14.5766 40.357Z" fill="#1C1B1F"/>
</svg>
