<svg width="49" height="47" viewBox="0 0 49 47" fill="none" xmlns="http://www.w3.org/2000/svg">
<path fill-rule="evenodd" clip-rule="evenodd" d="M17.3228 41.2476V27.1738L4.99536 20.0342V34.1079L17.3228 41.2476ZM33.7593 34.1079V20.0342L21.4319 27.1738V41.2476L33.7593 34.1079ZM17.3228 45.9731L2.9408 37.7034C2.29018 37.3268 1.7851 36.8302 1.42555 36.2139C1.06601 35.5975 0.88623 34.9126 0.88623 34.1593V17.8255C0.88623 17.0722 1.06601 16.3873 1.42555 15.7709C1.7851 15.1546 2.29018 14.658 2.9408 14.2814L17.3228 6.01175C17.9734 5.63508 18.6582 5.44674 19.3773 5.44674C20.0964 5.44674 20.7813 5.63508 21.4319 6.01175L35.8139 14.2814C36.4645 14.658 36.9695 15.1546 37.3291 15.7709C37.6886 16.3873 37.8684 17.0722 37.8684 17.8255V34.1593C37.8684 34.9126 37.6886 35.5975 37.3291 36.2139C36.9695 36.8302 36.4645 37.3268 35.8139 37.7034L21.4319 45.9731C20.7813 46.3497 20.0964 46.5381 19.3773 46.5381C18.6582 46.5381 17.9734 46.3497 17.3228 45.9731ZM27.5956 18.8528L31.5506 16.5928L19.3773 9.55587L15.3709 11.8673L13.9979 12.6639L26.2257 19.6547L27.5956 18.8528ZM19.3773 23.6297L23.3837 21.3183L24.8558 20.4566L12.6249 13.4606L11.2104 14.2814L7.20402 16.5928L19.3773 23.6297Z" fill="#1C1B1F"/>
<path d="M41.8285 22.8546V20.0889H37.8863V22.8546H41.8285Z" fill="#1C1B1F"/>
<path d="M45.0798 27.7104V24.5992H37.8863V27.7104H45.0798Z" fill="#1C1B1F"/>
<path d="M48.8862 33.3661V29.8232H37.8863V33.3661H48.8862Z" fill="#1C1B1F"/>
<path d="M34.3682 12.4392C33.7262 12.4392 33.1804 12.2145 32.731 11.7651C32.2816 11.3156 32.0568 10.7699 32.0568 10.1278H30.5159V1.65274C30.5159 1.22899 30.6668 0.866227 30.9686 0.564463C31.2703 0.262699 31.6331 0.111816 32.0568 0.111816H42.8433V3.19367H45.1547L47.4661 6.27551V10.1278H45.9252C45.9252 10.7699 45.7004 11.3156 45.251 11.7651C44.8016 12.2145 44.2558 12.4392 43.6138 12.4392C42.9717 12.4392 42.426 12.2145 41.9765 11.7651C41.5271 11.3156 41.3024 10.7699 41.3024 10.1278H36.6796C36.6796 10.7699 36.4549 11.3156 36.0055 11.7651C35.556 12.2145 35.0103 12.4392 34.3682 12.4392ZM34.3682 10.8983C34.5865 10.8983 34.7695 10.8245 34.9172 10.6768C35.0649 10.5291 35.1387 10.3461 35.1387 10.1278C35.1387 9.90953 35.0649 9.72654 34.9172 9.57887C34.7695 9.4312 34.5865 9.35736 34.3682 9.35736C34.1499 9.35736 33.9669 9.4312 33.8193 9.57887C33.6716 9.72654 33.5978 9.90953 33.5978 10.1278C33.5978 10.3461 33.6716 10.5291 33.8193 10.6768C33.9669 10.8245 34.1499 10.8983 34.3682 10.8983ZM32.0568 8.5869H32.6732C32.8915 8.35576 33.1419 8.16957 33.4244 8.02832C33.7069 7.88706 34.0215 7.81644 34.3682 7.81644C34.7149 7.81644 35.0295 7.88706 35.312 8.02832C35.5945 8.16957 35.845 8.35576 36.0632 8.5869H41.3024V1.65274H32.0568V8.5869ZM43.6138 10.8983C43.8321 10.8983 44.0151 10.8245 44.1627 10.6768C44.3104 10.5291 44.3842 10.3461 44.3842 10.1278C44.3842 9.90953 44.3104 9.72654 44.1627 9.57887C44.0151 9.4312 43.8321 9.35736 43.6138 9.35736C43.3955 9.35736 43.2125 9.4312 43.0648 9.57887C42.9172 9.72654 42.8433 9.90953 42.8433 10.1278C42.8433 10.3461 42.9172 10.5291 43.0648 10.6768C43.2125 10.8245 43.3955 10.8983 43.6138 10.8983ZM42.8433 7.04598H46.1178L44.3842 4.73459H42.8433V7.04598Z" fill="#1C1B1F"/>
</svg>
