<svg width="49" height="42" viewBox="0 0 49 42" fill="none" xmlns="http://www.w3.org/2000/svg">
<path d="M18.4639 19.5394C18.3742 19.4087 18.4676 19.2316 18.6261 19.2316H22.5618C22.7552 19.2316 22.9365 19.3265 23.0466 19.4859L23.4376 20.0508L25.3515 22.8165L28.916 27.9673L29.5255 28.8482L34.5795 36.1515C34.6697 36.2816 34.5763 36.4596 34.4178 36.4596H30.5248C30.2441 36.4596 29.9814 36.3216 29.8229 36.0901L24.2901 28.0285L24.289 28.0268L21.4331 23.8657L19.3304 20.8019L18.4639 19.5394Z" fill="#1C1B1F"/>
<path d="M34.7928 22.8996V19.657C34.7928 19.4762 34.6459 19.3293 34.4651 19.3293H30.8073H30.6781C30.4857 19.3293 30.3054 19.4232 30.1947 19.5812L27.4379 23.5253L24.2901 28.0285L21.2721 32.3462L21.1728 32.4882C21.0259 32.6987 20.7852 32.8238 20.5286 32.8238H18.4494C18.2686 32.8238 18.1217 32.9707 18.1217 33.1515V36.263C18.1217 36.4439 18.2681 36.5907 18.4494 36.5907H22.5641C22.7565 36.5907 22.9364 36.4969 23.047 36.3397L28.916 27.9673L30.8073 25.2692L32.0034 23.5629C32.1507 23.3528 32.3906 23.2283 32.6472 23.2283H34.4656C34.6464 23.2283 34.7933 23.0818 34.7933 22.9006L34.7928 22.8996Z" fill="#1C1B1F"/>
<path d="M26.2526 21.3751L24.8397 19.6282L24.1592 18.7868C25.2342 17.6408 26.3002 16.7296 27.4379 16.0273C28.4801 15.3838 29.5825 14.9156 30.8073 14.6024C32.1378 14.2622 33.6127 14.1049 35.3118 14.1049C43.1485 14.1048 48.4819 20.3528 48.4819 28.3544C48.4819 34.7763 42.709 41.7839 35.2485 41.7839C29.28 41.7839 26.4208 39.8687 24.1467 37.2354L26.3013 34.632C28.9047 37.3252 31.8674 39.1668 36.1111 38.4658C41.024 37.6543 45.0936 33.7992 45.0936 28.318C45.0936 22.8368 41.3232 17.8146 35.3879 17.3403C33.6263 17.1996 32.0947 17.486 30.8073 17.9756C28.4124 18.8864 26.8632 20.5004 26.2526 21.3751Z" fill="#1C1B1F"/>
<path fill-rule="evenodd" clip-rule="evenodd" d="M15.6446 32.7928C11.4047 32.7928 7.81759 32.14 4.88333 30.8343C1.94907 29.5286 0.481934 27.9351 0.481934 26.0538V9.20638C0.481934 7.35316 1.96311 5.76669 4.92545 4.44697C7.88779 3.12726 11.4609 2.4674 15.6446 2.4674C19.8284 2.4674 23.4015 3.12726 26.3638 4.44697C29.3262 5.76669 30.8073 7.35316 30.8073 9.20638V13.6219C28.992 13.9026 27.4379 14.8226 27.4379 14.9006V13.4604C26.7078 13.8535 25.9005 14.2045 25.016 14.5133C24.1315 14.8222 23.1909 15.0819 22.1941 15.2925C21.1973 15.5031 20.1513 15.6646 19.0562 15.7769C17.9612 15.8892 16.824 15.9454 15.6446 15.9454C14.4653 15.9454 13.3141 15.8892 12.1909 15.7769C11.0677 15.6646 10.0078 15.5031 9.01096 15.2925C8.01415 15.0819 7.08052 14.8222 6.21007 14.5133C5.33962 14.2045 4.5534 13.8535 3.85142 13.4604V18.5146C4.5534 18.9077 5.33962 19.2587 6.21007 19.5676C7.08052 19.8764 8.01415 20.1362 9.01096 20.3468C10.0078 20.5573 11.0677 20.7188 12.1909 20.8311C13.3141 20.9434 14.4653 20.9996 15.6446 20.9996C16.6245 20.9996 17.5754 20.9608 18.4971 20.8833L20.6266 24.0007C20.1149 24.0791 19.5914 24.1457 19.0562 24.2006C17.9612 24.3129 16.824 24.3691 15.6446 24.3691C14.4653 24.3691 13.3141 24.3129 12.1909 24.2006C11.0677 24.0883 10.0078 23.9268 9.01096 23.7162C8.01415 23.5057 7.08052 23.2459 6.21007 22.9371C5.33962 22.6282 4.5534 22.2772 3.85142 21.8841V26.0538C3.99182 26.475 4.43406 26.8822 5.17816 27.2753C5.92226 27.6684 6.85589 28.0264 7.97905 28.3493C9.10221 28.6722 10.3377 28.9319 11.6855 29.1285C13.0333 29.325 14.353 29.4233 15.6446 29.4233C16.9363 29.4233 18.249 29.325 19.5827 29.1285C20.6839 28.9662 21.7133 28.7609 22.6709 28.5125L20.2463 32.2767L18.4573 32.2945C17.97 32.3786 17.8098 32.5283 17.7032 32.7388C17.035 32.7748 16.3488 32.7928 15.6446 32.7928ZM21.4331 23.8657L19.3304 20.8019C20.3262 20.6914 21.2808 20.5397 22.1941 20.3468C22.6188 20.257 23.0333 20.1584 23.4376 20.0508L25.3515 22.8165C25.2409 22.8574 25.1291 22.8976 25.016 22.9371C24.1315 23.2459 23.1909 23.5057 22.1941 23.7162C21.9435 23.7692 21.6899 23.819 21.4331 23.8657ZM21.2721 32.3462C23.1616 32.0205 24.8729 31.5165 26.4059 30.8343C27.7567 30.2332 28.7966 29.5712 29.5255 28.8482L28.916 27.9673L30.8073 25.2692V19.3293H30.6781C30.4857 19.3293 30.3054 19.4232 30.1947 19.5812L27.4379 23.5253V26.0117C27.2975 26.4329 26.8482 26.8471 26.0901 27.2542C25.5742 27.5312 24.9738 27.7888 24.289 28.0268L24.2901 28.0285L21.2721 32.3462ZM30.8073 17.9756V14.6024C29.5825 14.9156 28.4801 15.3838 27.4379 16.0273V18.5146C26.7078 18.9077 25.9005 19.2587 25.016 19.5676C24.9575 19.588 24.8987 19.6082 24.8397 19.6282L26.2526 21.3751C26.8632 20.5004 28.4124 18.8864 30.8073 17.9756ZM15.6446 12.618C18.1437 12.618 20.6568 12.26 23.1839 11.544C25.711 10.8279 27.129 10.0628 27.4379 9.2485C27.129 8.4342 25.718 7.66203 23.2049 6.93197C20.6919 6.20192 18.1718 5.83689 15.6446 5.83689C13.0894 5.83689 10.5834 6.1949 8.12646 6.91091C5.66954 7.62693 4.24453 8.40612 3.85142 9.2485C4.24453 10.0909 5.66954 10.863 8.12646 11.565C10.5834 12.267 13.0894 12.618 15.6446 12.618Z" fill="#1C1B1F"/>
<path d="M32.1857 12.8827V8.4602H34.081V5.93308H37.2399V4.66953H35.3446V0.24707H40.3988V4.66953H38.5035V5.93308H41.6623V8.4602H43.5577V12.8827H38.5035V8.4602H40.3988V7.19664H35.3446V8.4602H37.2399V12.8827H32.1857ZM36.6081 3.40597H39.1352V1.51063H36.6081V3.40597ZM33.4492 11.6191H35.9763V9.72376H33.4492V11.6191ZM39.767 11.6191H42.2941V9.72376H39.767V11.6191Z" fill="#1C1B1F"/>
</svg>
